<?xml version="1.0" encoding="UTF-8"?>
<svg id="Réteg_1" data-name="Réteg 1" xmlns="http://www.w3.org/2000/svg" xmlns:xlink="http://www.w3.org/1999/xlink" viewBox="0 0 178.35 59.94">
  <defs>
    <style>
      .cls-1 {
        fill: url(#Névtelen_színátmenet_28);
      }

      .cls-2, .cls-3 {
        fill: #fff;
      }

      .cls-3 {
        fill-rule: evenodd;
      }

      .cls-4 {
        fill: url(#Névtelen_színátmenet_26);
      }

      .cls-5 {
        fill: url(#Névtelen_színátmenet_24);
      }
    </style>
    <linearGradient id="Névtelen_színátmenet_28" data-name="Névtelen színátmenet 28" x1="0" y1="51.78" x2="72.84" y2="51.78" gradientUnits="userSpaceOnUse">
      <stop offset=".43" stop-color="#009342"/>
      <stop offset=".5" stop-color="#0a9749" stop-opacity=".96"/>
      <stop offset=".59" stop-color="#26a35e" stop-opacity=".85"/>
      <stop offset=".69" stop-color="#55b781" stop-opacity=".66"/>
      <stop offset=".8" stop-color="#96d2b1" stop-opacity=".41"/>
      <stop offset=".91" stop-color="#eaf6ef" stop-opacity=".08"/>
      <stop offset=".94" stop-color="#fff" stop-opacity="0"/>
    </linearGradient>
    <linearGradient id="Névtelen_színátmenet_26" data-name="Névtelen színátmenet 26" x1=".88" y1="41.71" x2="71.19" y2="41.71" gradientUnits="userSpaceOnUse">
      <stop offset=".43" stop-color="#e20a21"/>
      <stop offset=".48" stop-color="#e21026" stop-opacity=".97"/>
      <stop offset=".55" stop-color="#e42236" stop-opacity=".9"/>
      <stop offset=".63" stop-color="#e83f51" stop-opacity=".78"/>
      <stop offset=".71" stop-color="#ed6876" stop-opacity=".61"/>
      <stop offset=".8" stop-color="#f39da6" stop-opacity=".4"/>
      <stop offset=".89" stop-color="#fadcdf" stop-opacity=".14"/>
      <stop offset=".94" stop-color="#fff" stop-opacity="0"/>
    </linearGradient>
    <linearGradient id="Névtelen_színátmenet_24" data-name="Névtelen színátmenet 24" x1=".06" y1="46.19" x2="71.78" y2="46.19" gradientUnits="userSpaceOnUse">
      <stop offset=".43" stop-color="#fff"/>
      <stop offset=".48" stop-color="#fff" stop-opacity=".98"/>
      <stop offset=".54" stop-color="#fff" stop-opacity=".91"/>
      <stop offset=".61" stop-color="#fff" stop-opacity=".81"/>
      <stop offset=".69" stop-color="#fff" stop-opacity=".66"/>
      <stop offset=".77" stop-color="#fff" stop-opacity=".47"/>
      <stop offset=".86" stop-color="#fff" stop-opacity=".24"/>
      <stop offset=".94" stop-color="#fff" stop-opacity="0"/>
    </linearGradient>
  </defs>
  <g>
    <path class="cls-2" d="M96.03,31.85h-3.07v-14.54h-4.92v-2.59h12.91v2.59h-4.92v14.54Z"/>
    <path class="cls-2" d="M113.31,31.85h-9.74V14.71h9.74v2.57h-6.67v4.37h6.24v2.57h-6.24v5.04h6.67v2.59Z"/>
    <path class="cls-2" d="M123.75,31.85l-4.42-14.04h-.09c.03.32.06.77.08,1.36.02.58.05,1.22.07,1.9.02.68.03,1.32.03,1.91v8.88h-2.59V14.71h4.02l4.24,13.46h.09l4.42-13.46h4.02v17.14h-2.75v-9.02c0-.54.01-1.14.03-1.79s.04-1.26.07-1.85c.02-.58.04-1.04.06-1.36h-.09l-4.6,14.02h-2.57Z"/>
    <path class="cls-2" d="M142.37,14.71c2.22,0,3.84.46,4.86,1.38,1.02.92,1.52,2.2,1.52,3.85,0,.98-.21,1.89-.62,2.74s-1.11,1.54-2.1,2.06c-.98.53-2.32.79-4,.79h-1.7v6.31h-3.07V14.71h5.11ZM142.18,17.26h-1.85v5.74h1.39c1.25,0,2.21-.23,2.89-.68s1.02-1.2,1.02-2.24c0-.94-.28-1.65-.84-2.11s-1.43-.7-2.62-.7Z"/>
    <path class="cls-2" d="M165.01,14.71v11.09c0,1.18-.25,2.25-.76,3.2-.5.95-1.27,1.7-2.29,2.26s-2.32.83-3.89.83c-2.22,0-3.91-.58-5.06-1.74-1.15-1.16-1.73-2.69-1.73-4.59v-11.04h3.07v10.73c0,1.41.32,2.43.95,3.07.63.64,1.59.96,2.87.96s2.29-.35,2.89-1.04.9-1.7.9-3.01v-10.7h3.05Z"/>
    <path class="cls-2" d="M178.28,27.17c0,1.52-.55,2.72-1.66,3.6-1.1.88-2.63,1.32-4.58,1.32s-3.49-.32-4.8-.96v-2.88c.72.32,1.52.61,2.39.88.87.27,1.75.4,2.63.4,1.04,0,1.8-.2,2.27-.61.47-.41.71-.93.71-1.57,0-.7-.3-1.27-.91-1.69-.61-.42-1.5-.88-2.66-1.38-.7-.29-1.38-.64-2.03-1.07s-1.18-.96-1.58-1.61c-.41-.65-.61-1.46-.61-2.44,0-1.46.52-2.6,1.55-3.43,1.03-.83,2.41-1.25,4.14-1.25.9,0,1.75.1,2.56.29.81.19,1.6.46,2.39.82l-.98,2.47c-.72-.3-1.4-.54-2.05-.72-.65-.18-1.32-.26-2-.26-.83,0-1.46.18-1.9.55-.43.37-.65.86-.65,1.46,0,.46.12.86.36,1.19.24.33.61.63,1.12.9.5.27,1.15.58,1.96.94.93.4,1.72.82,2.36,1.26.65.44,1.14.96,1.49,1.56.34.6.52,1.35.52,2.24Z"/>
    <path class="cls-2" d="M94.63,45.36h-1.19l-2.84-3.59-.82.67v2.91h-1.01v-7.51h1.01v3.7c.22-.24.45-.48.68-.72.23-.24.46-.48.7-.71l2.16-2.27h1.18l-3.17,3.27,3.3,4.24Z"/>
    <path class="cls-2" d="M102.59,41.6c0,.58-.08,1.11-.23,1.58s-.39.88-.7,1.22c-.31.34-.69.61-1.15.79-.46.18-.99.27-1.6.27s-1.17-.09-1.64-.28c-.46-.19-.85-.45-1.16-.79-.31-.34-.54-.75-.68-1.23-.15-.48-.22-1.01-.22-1.59,0-.77.13-1.44.4-2.02.27-.57.68-1.02,1.23-1.35.55-.32,1.24-.48,2.08-.48s1.47.16,2.02.48c.55.32.96.77,1.24,1.35s.42,1.26.42,2.03ZM96.27,41.6c0,.63.09,1.17.28,1.63.19.45.48.8.87,1.05.39.25.89.37,1.49.37s1.1-.12,1.49-.37c.38-.25.67-.6.86-1.05.19-.46.28-1,.28-1.63,0-.95-.21-1.69-.63-2.22-.42-.54-1.08-.8-1.99-.8-.61,0-1.1.12-1.5.36s-.68.59-.87,1.04c-.19.45-.28.99-.28,1.62ZM97.33,36.33c0-.18.05-.31.16-.39.1-.08.23-.12.37-.12s.27.04.37.12c.1.08.16.21.16.39s-.05.31-.16.39c-.1.09-.23.13-.37.13s-.27-.04-.37-.13c-.1-.09-.16-.22-.16-.39ZM99.44,36.33c0-.18.05-.31.15-.39s.22-.12.36-.12.27.04.37.12.16.21.16.39-.05.31-.16.39c-.1.09-.23.13-.37.13s-.26-.04-.36-.13c-.1-.09-.15-.22-.15-.39Z"/>
    <path class="cls-2" d="M109.26,45.36h-5.55v-.72l4.22-5.95h-4.08v-.84h5.31v.71l-4.22,5.95h4.33v.84Z"/>
    <path class="cls-2" d="M116.58,45.36l-.97-2.32h-3.17l-.95,2.32h-1.02l3.13-7.54h.91l3.12,7.54h-1.04ZM114.42,39.93c-.02-.06-.06-.16-.11-.31-.05-.15-.1-.3-.15-.46-.05-.16-.09-.28-.12-.36-.04.14-.08.28-.12.43-.04.14-.08.27-.12.39-.04.12-.08.22-.11.31l-.91,2.27h2.53l-.9-2.27Z"/>
    <path class="cls-2" d="M118.72,45.36v-7.51h1.01v6.67h3.5v.84h-4.51Z"/>
    <path class="cls-2" d="M130.39,45.36l-.97-2.32h-3.17l-.95,2.32h-1.02l3.13-7.54h.91l3.12,7.54h-1.04ZM128.23,39.93c-.02-.06-.06-.16-.11-.31-.05-.15-.1-.3-.15-.46-.05-.16-.09-.28-.12-.36-.04.14-.08.28-.12.43-.04.14-.08.27-.12.39-.04.12-.08.22-.11.31l-.91,2.27h2.53l-.9-2.27Z"/>
    <path class="cls-2" d="M134.65,37.86c1.05,0,1.81.19,2.29.58.48.39.72.93.72,1.63,0,.31-.05.6-.16.89-.11.28-.29.54-.53.76-.25.22-.58.4-.99.53s-.92.19-1.51.19h-.92v2.92h-1.01v-7.51h2.12ZM134.56,38.67h-1.02v2.97h.81c.51,0,.93-.05,1.27-.15s.59-.26.75-.49c.16-.23.25-.52.25-.88,0-.48-.16-.84-.49-1.08-.33-.24-.85-.36-1.56-.36Z"/>
    <path class="cls-2" d="M141.57,45.36h-2.89v-.55l.94-.2v-6l-.94-.21v-.55h2.89v.55l-.94.21v6l.94.2v.55ZM141.8,35.54c-.07.1-.16.22-.29.36-.13.14-.27.29-.42.44-.15.15-.31.29-.46.43-.15.14-.3.25-.43.35h-.65v-.13c.11-.13.23-.29.37-.47.13-.18.26-.37.39-.56.13-.19.23-.37.31-.52h1.19v.1Z"/>
    <path class="cls-2" d="M146.21,45.36h-1.01v-6.68h-2.5v-.83h6v.83h-2.49v6.68Z"/>
    <path class="cls-2" d="M156.1,37.86l-2.86,7.51h-1.01l-2.86-7.51h1.05l1.81,4.82c.08.2.15.4.21.59s.11.37.16.54c.05.17.09.34.13.51.04-.17.08-.34.13-.52.05-.18.1-.36.17-.55s.13-.39.21-.6l1.79-4.79h1.07Z"/>
    <path class="cls-2" d="M162.16,45.36l-.97-2.32h-3.17l-.95,2.32h-1.02l3.13-7.54h.91l3.12,7.54h-1.04ZM159.99,39.93c-.02-.06-.06-.16-.11-.31-.05-.15-.1-.3-.15-.46-.05-.16-.09-.28-.12-.36-.04.14-.08.28-.12.43-.04.14-.08.27-.12.39-.04.12-.08.22-.11.31l-.91,2.27h2.53l-.9-2.27ZM161.27,35.54c-.07.1-.16.22-.29.36-.13.14-.27.29-.42.44s-.31.29-.46.43c-.15.14-.3.25-.43.35h-.65v-.13c.11-.13.23-.29.36-.47.13-.18.26-.37.39-.56.13-.19.23-.37.31-.52h1.19v.1Z"/>
    <path class="cls-2" d="M170.85,45.36h-1.18l-4.29-6.24h-.04c.02.16.03.35.04.57.01.22.02.45.03.7.01.25.02.5.02.76v4.2h-.93v-7.51h1.17l4.27,6.21h.04c0-.11-.02-.28-.03-.5-.01-.23-.02-.47-.03-.74-.01-.27-.02-.51-.02-.74v-4.24h.94v7.51Z"/>
    <path class="cls-2" d="M175.18,41.55l2.09-3.69h1.09l-2.67,4.59v2.91h-1.01v-2.87l-2.67-4.64h1.1l2.08,3.69Z"/>
  </g>
  <rect class="cls-2" x="64.42" y="29.1" width="31.1" height="1.42" transform="translate(109.78 -50.16) rotate(90)"/>
  <g>
    <path class="cls-3" d="M36.42,13.79c-12.18,0-35.23.8-35.23,3.55,0,1.86,10.69,2.74,19.66,3.14h.25s0-1.1,0-1.1l-.22-.03c-6.7-.88-6.78-1.94-6.78-1.95,0-1.01,7.49-2.74,22.43-2.74s22.43,1.74,22.43,2.74c0,0-.09,1.19-7.91,2.09l-.22.02v1.02h.25c9.38-.4,20.57-1.27,20.57-3.19,0-2.74-23.04-3.55-35.23-3.55Z"/>
    <path class="cls-2" d="M31.5,4.91c0-2.71,2.2-4.91,4.91-4.91s4.91,2.2,4.91,4.91-2.2,4.91-4.91,4.91-4.91-2.2-4.91-4.91Z"/>
    <path class="cls-2" d="M40.62,35.83l-3.7-21.79h-.73l-4.3,23.65c3.26-.83,3.59-1.02,8.74-1.86Z"/>
    <g>
      <path class="cls-1" d="M72.84,59.94c-5.34-5.23-12.39-9.14-20.6-10.72-16.23-3.13-38.67-1.34-52.2-4.12-.05-.01-.04,0,.03-.11,24.42,3.08,49.25-9.08,71.72,7.92l1.06,7.03Z"/>
      <path class="cls-4" d="M.88,44.66s10.95-.85,30.87-6.93c2.7-.73,10.96-3,18.84-2.36,4.97.64,15.47,2.03,19.47,7.33.92,4.06,1.13,5.46,1.13,5.46,0,0-6.75-8.22-24.61-8.63-4.29.07-12.08.09-25.88,2.98-7.09,1.19-11.16,2.05-19.81,2.14Z"/>
      <path class="cls-5" d="M.06,44.99l.89-.34s12.67-.66,22.09-2.61c8.63-1.61,34.29-7.22,48.13,6.12.48,4.73.52,4.39.6,4.73-2.95-1.57-11.46-10.57-35.46-9.06-17.16,1.34-28.55,2.42-36.25,1.15Z"/>
    </g>
  </g>
</svg>